<svg width="100" height="100" viewBox="0 0 100 100" fill="none" xmlns="http://www.w3.org/2000/svg">
<path d="M52.1134 52.5653C64.6959 52.5653 74.8961 42.3652 74.8961 29.7827C74.8961 17.2001 64.6959 7 52.1134 7C39.5309 7 29.3307 17.2001 29.3307 29.7827C29.3307 42.3652 39.5309 52.5653 52.1134 52.5653Z" stroke="white" stroke-width="1.47459" stroke-linecap="round" stroke-linejoin="round"/>
<path d="M43.3639 46.017C43.5321 46.017 43.6965 45.9674 43.8366 45.8746L45.2671 44.9169C45.4072 44.824 45.5717 44.7745 45.7398 44.7745H46.49C46.6019 44.7745 46.7126 44.7525 46.8159 44.7096C46.9192 44.6668 47.0131 44.604 47.0921 44.5249C47.1712 44.4458 47.2338 44.3519 47.2766 44.2485C47.3193 44.1452 47.3412 44.0344 47.3411 43.9226V43.7696C47.3411 43.5437 47.4309 43.327 47.5906 43.1672C47.7504 43.0075 47.9671 42.9177 48.193 42.9177H52.5681C52.6799 42.9176 52.7906 42.9396 52.8939 42.9823C52.9972 43.025 53.0911 43.0877 53.1702 43.1667L54.7805 44.7778V45.397H55.9757C56.1657 45.3969 56.3501 45.4605 56.4998 45.5774C56.6494 45.6943 56.7557 45.8579 56.8016 46.0422L57.0994 47.8518C57.1454 48.0361 57.2516 48.1997 57.4013 48.3166C57.5509 48.4335 57.7354 48.497 57.9253 48.497H59.2141C59.3723 48.497 59.5274 48.453 59.6619 48.3697C59.7964 48.2865 59.9051 48.1675 59.9757 48.0259L60.1246 47.7281C60.1953 47.5866 60.3039 47.4675 60.4385 47.3843C60.573 47.3011 60.728 47.257 60.8862 47.257H61.7259C62.0311 47.257 62.3134 46.4734 62.4656 46.2082L64.6315 42.4173C64.6767 42.3378 64.7089 42.2515 64.7267 42.1618L65.2572 39.5109C65.2975 39.3091 65.2634 39.0996 65.1612 38.921L63.0018 35.1407C62.8976 34.959 62.7302 34.822 62.5315 34.7558L61.4973 34.4108C61.343 34.3594 61.2066 34.2649 61.1042 34.1384C61.0018 34.012 60.9378 33.8589 60.9196 33.6972L60.721 31.9072C60.7055 31.7658 60.6547 31.6306 60.5734 31.5139C60.4921 31.3972 60.3828 31.3027 60.2556 31.2392L59.9009 31.0618C59.7595 30.991 59.6407 30.8822 59.5576 30.7477C59.4746 30.6132 59.4306 30.4583 59.4306 30.3002V28.969H58.8106L57.3565 31.3921C57.2464 31.5765 57.0707 31.7124 56.8646 31.7728C56.6585 31.8331 56.4372 31.8134 56.2451 31.7176L55.1312 31.161C54.9478 31.0692 54.8037 30.9143 54.7252 30.7248C54.6467 30.5353 54.6392 30.3239 54.704 30.1293L54.717 30.0919C54.76 29.9637 54.7719 29.8272 54.7517 29.6936C54.7315 29.56 54.6798 29.4331 54.6008 29.3234C54.5219 29.2137 54.418 29.1243 54.2977 29.0627C54.1774 29.0011 54.0442 28.969 53.909 28.969H51.8976C51.7394 28.9689 51.5843 29.013 51.4498 29.0962C51.3153 29.1794 51.2066 29.2985 51.1361 29.4401L50.4371 30.8405C50.3501 31.0136 50.2068 31.1521 50.0306 31.233C49.8545 31.3139 49.6561 31.3324 49.468 31.2855L48.2142 30.9723C48.0483 30.9306 47.8737 30.94 47.7131 30.9991C47.5526 31.0581 47.4136 31.1642 47.3143 31.3034L44.6747 34.9983C44.5941 35.1116 44.4868 35.2032 44.3623 35.2652L40.3542 37.2684C40.1529 37.3693 39.9999 37.5459 39.9285 37.7594C39.8572 37.9729 39.8733 38.2059 39.9734 38.4076L42.573 43.6069C42.6503 43.7619 42.6786 43.9366 42.6544 44.1081L42.5209 45.043C42.5033 45.1639 42.5119 45.2873 42.5462 45.4046C42.5805 45.5219 42.6396 45.6304 42.7196 45.7229C42.7996 45.8153 42.8985 45.8894 43.0097 45.9401C43.1209 45.9909 43.2417 46.0171 43.3639 46.017Z" stroke="white" stroke-width="1.47459" stroke-linecap="round" stroke-linejoin="round"/>
<path d="M31.6472 20.3352L32.5853 24.087L36.6537 24.9007L39.9083 28.1553H44.7903V25.7143L40.722 24.9007L36.6537 21.646V16.764L41.5357 18.3913L43.9767 15.9503L41.3485 10.0374" stroke="white" stroke-width="1.47459" stroke-linecap="round" stroke-linejoin="round"/>
<path d="M50.5154 25.9039L53.8636 25.6956L56.9661 24.7111" stroke="white" stroke-width="1.47459" stroke-linecap="round" stroke-linejoin="round"/>
<path d="M44.7904 18.3913L43.9767 19.205" stroke="white" stroke-width="1.47459" stroke-linecap="round" stroke-linejoin="round"/>
<path d="M54.5543 49.3107L55.368 50.1244" stroke="white" stroke-width="1.47459" stroke-linecap="round" stroke-linejoin="round"/>
<path d="M64.3183 30.5963L63.5046 28.1553L60.25 26.528L59.4363 24.087L65.132 25.7143L65.9456 29.7827L64.3183 30.5963Z" stroke="white" stroke-width="1.47459" stroke-linecap="round" stroke-linejoin="round"/>
<path d="M43.9767 22.4596L45.604 23.2733" stroke="white" stroke-width="1.47459" stroke-linecap="round" stroke-linejoin="round"/>
<path d="M48.8587 22.4597L49.6723 21.646" stroke="white" stroke-width="1.47459" stroke-linecap="round" stroke-linejoin="round"/>
<path d="M89.052 72.338C90.078 72.338 91.014 72.518 91.86 72.878C92.724 73.22 93.462 73.706 94.074 74.336C94.704 74.948 95.19 75.686 95.532 76.55C95.892 77.414 96.072 78.359 96.072 79.385C96.072 80.411 95.892 81.356 95.532 82.22C95.19 83.084 94.704 83.831 94.074 84.461C93.462 85.073 92.724 85.559 91.86 85.919C91.014 86.261 90.078 86.432 89.052 86.432C88.026 86.432 87.081 86.261 86.217 85.919C85.371 85.559 84.633 85.073 84.003 84.461C83.391 83.831 82.905 83.084 82.545 82.22C82.203 81.356 82.032 80.411 82.032 79.385C82.032 78.359 82.203 77.414 82.545 76.55C82.905 75.686 83.391 74.948 84.003 74.336C84.633 73.706 85.371 73.22 86.217 72.878C87.081 72.518 88.026 72.338 89.052 72.338ZM89.052 83.165C89.502 83.165 89.934 83.084 90.348 82.922C90.78 82.742 91.158 82.49 91.482 82.166C91.806 81.842 92.058 81.446 92.238 80.978C92.436 80.51 92.535 79.979 92.535 79.385C92.535 78.791 92.436 78.26 92.238 77.792C92.058 77.324 91.806 76.928 91.482 76.604C91.158 76.28 90.78 76.037 90.348 75.875C89.934 75.695 89.502 75.605 89.052 75.605C88.584 75.605 88.143 75.695 87.729 75.875C87.315 76.037 86.946 76.28 86.622 76.604C86.298 76.928 86.037 77.324 85.839 77.792C85.659 78.26 85.569 78.791 85.569 79.385C85.569 79.979 85.659 80.51 85.839 80.978C86.037 81.446 86.298 81.842 86.622 82.166C86.946 82.49 87.315 82.742 87.729 82.922C88.143 83.084 88.584 83.165 89.052 83.165Z" fill="white"/>
<path d="M69.5324 83.084L76.2824 75.794H69.7484V72.77H80.6294V75.686L73.8794 82.976H80.7374V86H69.5324V83.084Z" fill="white"/>
<path d="M63.6703 84.596H63.4543C63.0403 85.1 62.5363 85.532 61.9423 85.892C61.3663 86.252 60.6193 86.432 59.7013 86.432C59.0173 86.432 58.3693 86.315 57.7573 86.081C57.1633 85.865 56.6413 85.559 56.1913 85.163C55.7413 84.767 55.3903 84.29 55.1383 83.732C54.8863 83.174 54.7603 82.562 54.7603 81.896C54.7603 81.212 54.8953 80.6 55.1653 80.06C55.4353 79.502 55.8133 79.025 56.2993 78.629C56.7853 78.233 57.3523 77.936 58.0003 77.738C58.6663 77.522 59.3863 77.414 60.1603 77.414C61.0243 77.414 61.7353 77.486 62.2933 77.63C62.8513 77.756 63.3103 77.891 63.6703 78.035V77.63C63.6703 76.928 63.3913 76.352 62.8333 75.902C62.2753 75.434 61.5823 75.2 60.7543 75.2C59.5303 75.2 58.4953 75.713 57.6493 76.739L55.0843 74.984C56.4883 73.22 58.4053 72.338 60.8353 72.338C62.8873 72.338 64.4533 72.824 65.5333 73.796C66.6133 74.75 67.1533 76.172 67.1533 78.062V86H63.6703V84.596ZM63.6703 80.627C63.2563 80.429 62.8243 80.276 62.3743 80.168C61.9423 80.042 61.4653 79.979 60.9433 79.979C60.0973 79.979 59.4403 80.168 58.9723 80.546C58.5223 80.906 58.2973 81.356 58.2973 81.896C58.2973 82.436 58.5133 82.868 58.9453 83.192C59.3953 83.516 59.9083 83.678 60.4843 83.678C60.9523 83.678 61.3843 83.597 61.7803 83.435C62.1763 83.255 62.5093 83.03 62.7793 82.76C63.0673 82.472 63.2833 82.148 63.4273 81.788C63.5893 81.41 63.6703 81.023 63.6703 80.627Z" fill="white"/>
<path d="M39.373 72.77H42.694V74.363H42.91C43.234 73.805 43.738 73.328 44.422 72.932C45.106 72.536 45.952 72.338 46.96 72.338C47.806 72.338 48.607 72.518 49.363 72.878C50.137 73.22 50.812 73.706 51.388 74.336C51.982 74.948 52.45 75.686 52.792 76.55C53.134 77.414 53.305 78.359 53.305 79.385C53.305 80.411 53.134 81.356 52.792 82.22C52.45 83.084 51.982 83.831 51.388 84.461C50.812 85.073 50.137 85.559 49.363 85.919C48.607 86.261 47.806 86.432 46.96 86.432C45.952 86.432 45.106 86.234 44.422 85.838C43.738 85.442 43.234 84.965 42.91 84.407H42.694L42.91 86.297V91.832H39.373V72.77ZM46.231 83.165C46.699 83.165 47.14 83.075 47.554 82.895C47.986 82.715 48.364 82.463 48.688 82.139C49.012 81.815 49.273 81.419 49.471 80.951C49.669 80.483 49.768 79.961 49.768 79.385C49.768 78.809 49.669 78.287 49.471 77.819C49.273 77.351 49.012 76.955 48.688 76.631C48.364 76.307 47.986 76.055 47.554 75.875C47.14 75.695 46.699 75.605 46.231 75.605C45.763 75.605 45.313 75.695 44.881 75.875C44.467 76.037 44.098 76.28 43.774 76.604C43.45 76.928 43.189 77.324 42.991 77.792C42.793 78.26 42.694 78.791 42.694 79.385C42.694 79.979 42.793 80.51 42.991 80.978C43.189 81.446 43.45 81.842 43.774 82.166C44.098 82.49 44.467 82.742 44.881 82.922C45.313 83.084 45.763 83.165 46.231 83.165Z" fill="white"/>
<path d="M34.5135 70.853C34.2075 70.853 33.9105 70.799 33.6225 70.691C33.3525 70.565 33.1095 70.403 32.8935 70.205C32.6955 69.989 32.5335 69.746 32.4075 69.476C32.2995 69.206 32.2455 68.909 32.2455 68.585C32.2455 68.261 32.2995 67.964 32.4075 67.694C32.5335 67.424 32.6955 67.19 32.8935 66.992C33.1095 66.776 33.3525 66.614 33.6225 66.506C33.9105 66.38 34.2075 66.317 34.5135 66.317C35.1435 66.317 35.6835 66.542 36.1335 66.992C36.5835 67.424 36.8085 67.955 36.8085 68.585C36.8085 69.215 36.5835 69.755 36.1335 70.205C35.6835 70.637 35.1435 70.853 34.5135 70.853ZM32.7585 86V72.77H36.2955V86H32.7585Z" fill="white"/>
<path d="M21.5961 72.77H24.9171V74.606H25.1331C25.2951 74.282 25.5111 73.985 25.7811 73.715C26.0511 73.445 26.3481 73.211 26.6721 73.013C27.0141 72.815 27.3741 72.662 27.7521 72.554C28.1481 72.446 28.5351 72.392 28.9131 72.392C29.3811 72.392 29.7771 72.437 30.1011 72.527C30.4431 72.617 30.7311 72.734 30.9651 72.878L30.0201 76.091C29.8041 75.983 29.5611 75.902 29.2911 75.848C29.0391 75.776 28.7241 75.74 28.3461 75.74C27.8601 75.74 27.4191 75.839 27.0231 76.037C26.6271 76.217 26.2851 76.478 25.9971 76.82C25.7271 77.162 25.5111 77.567 25.3491 78.035C25.2051 78.485 25.1331 78.98 25.1331 79.52V86H21.5961V72.77Z" fill="white"/>
<path d="M12.048 86V70.124H6.64799V66.668H21.093V70.124H15.693V86H12.048Z" fill="white"/>
</svg>
