<svg width="100" height="100" viewBox="0 0 100 100" fill="none" xmlns="http://www.w3.org/2000/svg">
<path d="M11.3968 86.0852V67.6115H15.564V86.0852H11.3968ZM5.53085 70.9825V67.3461H21.4299V70.9825H5.53085Z" fill="black"/>
<path d="M20.5734 86.0852V73.1855H24.6344V86.0852H20.5734ZM24.6344 78.9983L22.9357 77.6712C23.2719 76.1671 23.8382 74.9992 24.6344 74.1676C25.4307 73.3359 26.5367 72.9201 27.9523 72.9201C28.5716 72.9201 29.1113 73.0174 29.5714 73.212C30.0491 73.389 30.465 73.6721 30.8189 74.0614L28.4035 77.1138C28.2265 76.9192 28.0053 76.7687 27.7399 76.6626C27.4745 76.5564 27.1737 76.5033 26.8375 76.5033C26.1651 76.5033 25.6254 76.7157 25.2184 77.1403C24.8291 77.5473 24.6344 78.1667 24.6344 78.9983Z" fill="black"/>
<path d="M31.6549 86.0852V73.1855H35.7159V86.0852H31.6549ZM33.6987 71.4071C33.0617 71.4071 32.5308 71.1948 32.1061 70.7701C31.6991 70.3277 31.4957 69.7969 31.4957 69.1776C31.4957 68.5405 31.6991 68.0097 32.1061 67.585C32.5308 67.1603 33.0617 66.948 33.6987 66.948C34.3357 66.948 34.8577 67.1603 35.2647 67.585C35.6717 68.0097 35.8752 68.5405 35.8752 69.1776C35.8752 69.7969 35.6717 70.3277 35.2647 70.7701C34.8577 71.1948 34.3357 71.4071 33.6987 71.4071Z" fill="black"/>
<path d="M45.7618 86.3506C44.8948 86.3506 44.0985 86.1825 43.373 85.8463C42.6475 85.5101 42.0547 85.05 41.5947 84.4661C41.1346 83.8645 40.8692 83.1832 40.7984 82.4223V76.9811C40.8692 76.2202 41.1346 75.5301 41.5947 74.9108C42.0547 74.2914 42.6475 73.8048 43.373 73.4509C44.0985 73.097 44.8948 72.9201 45.7618 72.9201C46.9828 72.9201 48.0622 73.212 49 73.796C49.9556 74.3799 50.6988 75.1762 51.2296 76.1848C51.7782 77.1934 52.0524 78.3436 52.0524 79.6353C52.0524 80.9271 51.7782 82.0773 51.2296 83.0859C50.6988 84.0945 49.9556 84.8908 49 85.4747C48.0622 86.0587 46.9828 86.3506 45.7618 86.3506ZM45.0187 82.6877C45.6026 82.6877 46.1069 82.555 46.5316 82.2896C46.974 82.0242 47.319 81.6614 47.5667 81.2014C47.8145 80.7413 47.9383 80.2193 47.9383 79.6353C47.9383 79.0337 47.8145 78.5029 47.5667 78.0428C47.319 77.5827 46.974 77.2288 46.5316 76.9811C46.1069 76.7157 45.6114 76.5829 45.0452 76.5829C44.479 76.5829 43.9746 76.7157 43.5323 76.9811C43.1076 77.2288 42.7714 77.5827 42.5237 78.0428C42.2759 78.5029 42.1521 79.0337 42.1521 79.6353C42.1521 80.2193 42.2671 80.7413 42.4971 81.2014C42.7448 81.6614 43.0899 82.0242 43.5323 82.2896C43.9746 82.555 44.4701 82.6877 45.0187 82.6877ZM38.3299 91.5264V73.1855H42.3909V76.5033L41.7274 79.6353L42.3379 82.7674V91.5264H38.3299Z" fill="black"/>
<path d="M53.8697 86.0852V66.8153H57.9308V86.0852H53.8697Z" fill="black"/>
<path d="M60.5448 86.0852V73.1855H64.6058V86.0852H60.5448ZM62.5885 71.4071C61.9515 71.4071 61.4207 71.1948 60.996 70.7701C60.589 70.3277 60.3855 69.7969 60.3855 69.1776C60.3855 68.5405 60.589 68.0097 60.996 67.585C61.4207 67.1603 61.9515 66.948 62.5885 66.948C63.2256 66.948 63.7476 67.1603 64.1545 67.585C64.5615 68.0097 64.765 68.5405 64.765 69.1776C64.765 69.7969 64.5615 70.3277 64.1545 70.7701C63.7476 71.1948 63.2256 71.4071 62.5885 71.4071Z" fill="black"/>
<path d="M75.7399 86.0852V78.7329C75.7399 78.0605 75.5276 77.5208 75.1029 77.1138C74.6959 76.6891 74.1739 76.4768 73.5369 76.4768C73.0945 76.4768 72.7052 76.5741 72.369 76.7687C72.0328 76.9457 71.7674 77.2111 71.5727 77.565C71.3781 77.9012 71.2808 78.2905 71.2808 78.7329L69.7148 77.9632C69.7148 76.9545 69.9359 76.0698 70.3783 75.3089C70.8207 74.548 71.4312 73.9641 72.2098 73.5571C73.006 73.1324 73.8996 72.9201 74.8906 72.9201C75.8461 72.9201 76.6866 73.1501 77.4121 73.6102C78.1553 74.0525 78.7392 74.6453 79.1639 75.3885C79.5886 76.1317 79.8009 76.9457 79.8009 77.8304V86.0852H75.7399ZM67.2198 86.0852V73.1855H71.2808V86.0852H67.2198Z" fill="black"/>
<path d="M88.5336 86.3772C87.1357 86.3772 85.8882 86.094 84.7911 85.5278C83.7117 84.9439 82.8624 84.1387 82.243 83.1124C81.6237 82.0861 81.314 80.9271 81.314 79.6353C81.314 78.3436 81.6149 77.1934 82.2165 76.1848C82.8358 75.1585 83.6675 74.3534 84.7115 73.7694C85.7555 73.1855 86.9322 72.8935 88.2417 72.8935C89.5157 72.8935 90.6393 73.1678 91.6126 73.7163C92.5858 74.2649 93.3467 75.0258 93.8952 75.999C94.4615 76.9722 94.7446 78.087 94.7446 79.3434C94.7446 79.5734 94.7269 79.8211 94.6915 80.0866C94.6738 80.3343 94.6296 80.6263 94.5588 80.9625L83.4375 80.989V78.202L92.8335 78.1755L91.0817 79.3434C91.064 78.6002 90.949 77.9897 90.7367 77.5119C90.5243 77.0165 90.2058 76.6449 89.7811 76.3971C89.3741 76.1317 88.8698 75.999 88.2682 75.999C87.6312 75.999 87.0738 76.1494 86.596 76.4502C86.136 76.7334 85.7732 77.1403 85.5078 77.6712C85.26 78.202 85.1362 78.8479 85.1362 79.6088C85.1362 80.3697 85.2689 81.0244 85.5343 81.573C85.8174 82.1038 86.2067 82.5196 86.7022 82.8205C87.2154 83.1036 87.817 83.2451 88.5071 83.2451C89.1441 83.2451 89.7192 83.139 90.2324 82.9266C90.7455 82.6966 91.1967 82.3604 91.586 81.918L93.8156 84.1476C93.1786 84.8908 92.4088 85.4482 91.5064 85.8198C90.604 86.1914 89.613 86.3772 88.5336 86.3772Z" fill="black"/>
<path d="M52.1134 52.5653C64.6959 52.5653 74.8961 42.3652 74.8961 29.7827C74.8961 17.2001 64.6959 7 52.1134 7C39.5309 7 29.3307 17.2001 29.3307 29.7827C29.3307 42.3652 39.5309 52.5653 52.1134 52.5653Z" stroke="black" stroke-width="1.47459" stroke-linecap="round" stroke-linejoin="round"/>
<path d="M43.3639 46.017C43.5321 46.017 43.6965 45.9674 43.8366 45.8746L45.2671 44.9169C45.4072 44.824 45.5717 44.7745 45.7398 44.7745H46.49C46.6019 44.7745 46.7126 44.7525 46.8159 44.7096C46.9192 44.6668 47.0131 44.6041 47.0921 44.5249C47.1712 44.4458 47.2338 44.3519 47.2766 44.2485C47.3193 44.1452 47.3412 44.0344 47.3411 43.9226V43.7696C47.3411 43.5437 47.4309 43.327 47.5906 43.1672C47.7504 43.0075 47.9671 42.9177 48.193 42.9177H52.5681C52.6799 42.9176 52.7906 42.9396 52.8939 42.9823C52.9972 43.025 53.0911 43.0877 53.1702 43.1667L54.7805 44.7778V45.397H55.9757C56.1657 45.3969 56.3501 45.4605 56.4998 45.5774C56.6494 45.6943 56.7557 45.8579 56.8016 46.0422L57.0994 47.8518C57.1454 48.0361 57.2516 48.1997 57.4013 48.3166C57.5509 48.4335 57.7354 48.497 57.9253 48.497H59.2141C59.3723 48.497 59.5274 48.453 59.6619 48.3697C59.7964 48.2865 59.9051 48.1675 59.9757 48.0259L60.1246 47.7281C60.1953 47.5866 60.3039 47.4675 60.4385 47.3843C60.573 47.3011 60.728 47.257 60.8862 47.257H61.7259C62.0311 47.257 62.3134 46.4734 62.4656 46.2082L64.6315 42.4173C64.6767 42.3378 64.7089 42.2515 64.7267 42.1618L65.2572 39.5109C65.2975 39.3091 65.2634 39.0996 65.1612 38.921L63.0018 35.1407C62.8976 34.959 62.7302 34.822 62.5315 34.7558L61.4973 34.4108C61.343 34.3594 61.2066 34.2649 61.1042 34.1384C61.0018 34.012 60.9378 33.8589 60.9196 33.6972L60.721 31.9072C60.7055 31.7658 60.6547 31.6306 60.5734 31.5139C60.4921 31.3972 60.3828 31.3027 60.2556 31.2392L59.9009 31.0618C59.7595 30.991 59.6407 30.8822 59.5576 30.7477C59.4746 30.6132 59.4306 30.4583 59.4306 30.3002V28.969H58.8106L57.3565 31.3921C57.2464 31.5765 57.0707 31.7124 56.8646 31.7728C56.6585 31.8331 56.4372 31.8134 56.2451 31.7176L55.1312 31.161C54.9478 31.0692 54.8037 30.9143 54.7252 30.7248C54.6467 30.5353 54.6392 30.3239 54.704 30.1293L54.717 30.0919C54.76 29.9638 54.7719 29.8272 54.7517 29.6936C54.7315 29.56 54.6798 29.4331 54.6008 29.3234C54.5219 29.2137 54.418 29.1243 54.2977 29.0627C54.1774 29.0011 54.0442 28.969 53.909 28.969H51.8976C51.7394 28.9689 51.5843 29.013 51.4498 29.0962C51.3153 29.1794 51.2066 29.2985 51.1361 29.4401L50.4371 30.8405C50.3501 31.0136 50.2068 31.1521 50.0306 31.233C49.8545 31.3139 49.6561 31.3324 49.468 31.2855L48.2142 30.9723C48.0483 30.9307 47.8737 30.94 47.7131 30.9991C47.5526 31.0581 47.4136 31.1642 47.3143 31.3034L44.6747 34.9983C44.5941 35.1116 44.4868 35.2032 44.3623 35.2652L40.3542 37.2684C40.1529 37.3693 39.9999 37.5459 39.9285 37.7594C39.8572 37.9729 39.8733 38.2059 39.9734 38.4076L42.573 43.6069C42.6503 43.7619 42.6786 43.9367 42.6544 44.1081L42.5209 45.043C42.5033 45.164 42.5119 45.2873 42.5462 45.4046C42.5805 45.5219 42.6396 45.6304 42.7196 45.7229C42.7996 45.8153 42.8985 45.8894 43.0097 45.9401C43.1209 45.9909 43.2417 46.0171 43.3639 46.017Z" stroke="black" stroke-width="1.47459" stroke-linecap="round" stroke-linejoin="round"/>
<path d="M31.6472 20.3352L32.5853 24.087L36.6537 24.9007L39.9083 28.1553H44.7903V25.7143L40.722 24.9007L36.6537 21.646V16.764L41.5357 18.3913L43.9767 15.9503L41.3485 10.0374" stroke="black" stroke-width="1.47459" stroke-linecap="round" stroke-linejoin="round"/>
<path d="M50.5154 25.9039L53.8636 25.6956L56.9661 24.7111" stroke="black" stroke-width="1.47459" stroke-linecap="round" stroke-linejoin="round"/>
<path d="M44.7904 18.3913L43.9767 19.205" stroke="black" stroke-width="1.47459" stroke-linecap="round" stroke-linejoin="round"/>
<path d="M54.5543 49.3107L55.368 50.1244" stroke="black" stroke-width="1.47459" stroke-linecap="round" stroke-linejoin="round"/>
<path d="M64.3183 30.5963L63.5046 28.1553L60.25 26.528L59.4363 24.087L65.132 25.7143L65.9456 29.7827L64.3183 30.5963Z" stroke="black" stroke-width="1.47459" stroke-linecap="round" stroke-linejoin="round"/>
<path d="M43.9767 22.4596L45.604 23.2733" stroke="black" stroke-width="1.47459" stroke-linecap="round" stroke-linejoin="round"/>
<path d="M48.8587 22.4597L49.6723 21.646" stroke="black" stroke-width="1.47459" stroke-linecap="round" stroke-linejoin="round"/>
</svg>
