<svg width="100" height="31" viewBox="0 0 100 31" fill="none" xmlns="http://www.w3.org/2000/svg">
<path d="M13.1949 24.4286C17.8627 24.4286 21.6468 20.6445 21.6468 15.9767C21.6468 11.3088 17.8627 7.52473 13.1949 7.52473C8.52699 7.52473 4.74293 11.3088 4.74293 15.9767C4.74293 20.6445 8.52699 24.4286 13.1949 24.4286Z" stroke="#C6C2C2" stroke-width="1.19048" stroke-linecap="round" stroke-linejoin="round"/>
<path d="M9.94899 21.9993C10.0114 21.9993 10.0724 21.9809 10.1244 21.9465L10.655 21.5912C10.707 21.5567 10.768 21.5383 10.8304 21.5383H11.1087C11.1502 21.5383 11.1913 21.5302 11.2296 21.5143C11.2679 21.4984 11.3028 21.4751 11.3321 21.4458C11.3614 21.4164 11.3847 21.3816 11.4005 21.3432C11.4164 21.3049 11.4245 21.2638 11.4245 21.2223V21.1656C11.4245 21.0817 11.4578 21.0014 11.517 20.9421C11.5763 20.8828 11.6567 20.8495 11.7405 20.8495H13.3636C13.405 20.8495 13.4461 20.8576 13.4844 20.8735C13.5228 20.8893 13.5576 20.9126 13.5869 20.9419L14.1843 21.5396V21.7693H14.6277C14.6982 21.7693 14.7666 21.7928 14.8221 21.8362C14.8777 21.8796 14.9171 21.9403 14.9341 22.0086L15.0446 22.68C15.0616 22.7483 15.1011 22.809 15.1566 22.8524C15.2121 22.8958 15.2805 22.9193 15.351 22.9193H15.8291C15.8878 22.9193 15.9453 22.903 15.9952 22.8721C16.0451 22.8412 16.0855 22.7971 16.1117 22.7446L16.1669 22.6341C16.1931 22.5816 16.2334 22.5374 16.2833 22.5065C16.3332 22.4757 16.3907 22.4593 16.4494 22.4593H16.7609C16.8741 22.4593 16.9789 22.1686 17.0353 22.0702L17.8389 20.6639C17.8556 20.6344 17.8676 20.6024 17.8742 20.5691L18.071 19.5857C18.0859 19.5108 18.0733 19.4331 18.0354 19.3668L17.2343 17.9644C17.1956 17.897 17.1335 17.8462 17.0598 17.8216L16.6761 17.6936C16.6189 17.6745 16.5683 17.6395 16.5303 17.5926C16.4923 17.5457 16.4686 17.4889 16.4618 17.4289L16.3882 16.7648C16.3824 16.7124 16.3635 16.6622 16.3334 16.6189C16.3032 16.5756 16.2627 16.5406 16.2155 16.517L16.0839 16.4512C16.0315 16.4249 15.9874 16.3846 15.9566 16.3347C15.9257 16.2848 15.9094 16.2273 15.9094 16.1687V15.6748H15.6794L15.14 16.5737C15.0991 16.6421 15.0339 16.6926 14.9575 16.715C14.881 16.7373 14.7989 16.73 14.7276 16.6945L14.3144 16.488C14.2464 16.4539 14.1929 16.3965 14.1638 16.3262C14.1347 16.2559 14.1319 16.1775 14.1559 16.1053L14.1608 16.0914C14.1767 16.0438 14.1811 15.9932 14.1736 15.9436C14.1661 15.894 14.147 15.847 14.1177 15.8063C14.0884 15.7656 14.0498 15.7324 14.0052 15.7096C13.9606 15.6867 13.9112 15.6748 13.861 15.6748H13.1148C13.0561 15.6748 12.9986 15.6911 12.9487 15.722C12.8988 15.7529 12.8585 15.7971 12.8323 15.8496L12.573 16.3691C12.5407 16.4333 12.4876 16.4847 12.4222 16.5147C12.3569 16.5447 12.2833 16.5516 12.2135 16.5342L11.7483 16.418C11.6868 16.4025 11.622 16.406 11.5625 16.4279C11.5029 16.4498 11.4513 16.4892 11.4145 16.5408L10.4353 17.9116C10.4054 17.9536 10.3655 17.9876 10.3194 18.0106L8.83243 18.7537C8.75778 18.7912 8.70101 18.8567 8.67453 18.9359C8.64805 19.0151 8.65403 19.1015 8.69116 19.1763L9.65558 21.1052C9.68424 21.1627 9.69477 21.2275 9.68577 21.2911L9.63627 21.638C9.62972 21.6828 9.63291 21.7286 9.64563 21.7721C9.65835 21.8156 9.68029 21.8559 9.70996 21.8902C9.73963 21.9245 9.77634 21.9519 9.81758 21.9708C9.85883 21.9896 9.90365 21.9993 9.94899 21.9993Z" stroke="#C6C2C2" stroke-width="1.19048" stroke-linecap="round" stroke-linejoin="round"/>
<path d="M5.60229 12.4718L5.95033 13.8637L7.4596 14.1655L8.66702 15.373H10.4781V14.4674L8.96887 14.1655L7.4596 12.9581V11.147L9.27073 11.7507L10.1763 10.8451L9.2013 8.65157" stroke="#C6C2C2" stroke-width="1.19048" stroke-linecap="round" stroke-linejoin="round"/>
<path d="M12.602 14.5377L13.8441 14.4605L14.9951 14.0952" stroke="#C6C2C2" stroke-width="1.19048" stroke-linecap="round" stroke-linejoin="round"/>
<path d="M10.4782 11.7507L10.1763 12.0525" stroke="#C6C2C2" stroke-width="1.19048" stroke-linecap="round" stroke-linejoin="round"/>
<path d="M14.1004 23.2212L14.4023 23.5231" stroke="#C6C2C2" stroke-width="1.19048" stroke-linecap="round" stroke-linejoin="round"/>
<path d="M17.7227 16.2785L17.4208 15.373L16.2134 14.7693L15.9115 13.8637L18.0245 14.4674L18.3264 15.9767L17.7227 16.2785Z" stroke="#C6C2C2" stroke-width="1.19048" stroke-linecap="round" stroke-linejoin="round"/>
<path d="M10.1763 13.26L10.78 13.5618" stroke="#C6C2C2" stroke-width="1.19048" stroke-linecap="round" stroke-linejoin="round"/>
<path d="M11.9874 13.26L12.2893 12.9581" stroke="#C6C2C2" stroke-width="1.19048" stroke-linecap="round" stroke-linejoin="round"/>
<path d="M89.3497 12.4826C90.1135 12.4826 90.8104 12.6166 91.4402 12.8847C92.0835 13.1393 92.6329 13.5011 93.0885 13.9701C93.5576 14.4258 93.9194 14.9752 94.174 15.6185C94.442 16.2617 94.576 16.9653 94.576 17.7291C94.576 18.493 94.442 19.1965 94.174 19.8398C93.9194 20.483 93.5576 21.0392 93.0885 21.5082C92.6329 21.9638 92.0835 22.3256 91.4402 22.5937C90.8104 22.8483 90.1135 22.9756 89.3497 22.9756C88.5858 22.9756 87.8823 22.8483 87.239 22.5937C86.6092 22.3256 86.0597 21.9638 85.5907 21.5082C85.1351 21.0392 84.7732 20.483 84.5052 19.8398C84.2506 19.1965 84.1233 18.493 84.1233 17.7291C84.1233 16.9653 84.2506 16.2617 84.5052 15.6185C84.7732 14.9752 85.1351 14.4258 85.5907 13.9701C86.0597 13.5011 86.6092 13.1393 87.239 12.8847C87.8823 12.6166 88.5858 12.4826 89.3497 12.4826ZM89.3497 20.5433C89.6847 20.5433 90.0063 20.483 90.3145 20.3624C90.6362 20.2284 90.9176 20.0408 91.1588 19.7996C91.4 19.5583 91.5876 19.2635 91.7216 18.9151C91.869 18.5667 91.9428 18.1713 91.9428 17.7291C91.9428 17.2869 91.869 16.8916 91.7216 16.5431C91.5876 16.1947 91.4 15.8999 91.1588 15.6587C90.9176 15.4174 90.6362 15.2365 90.3145 15.1159C90.0063 14.9819 89.6847 14.9149 89.3497 14.9149C89.0012 14.9149 88.6729 14.9819 88.3647 15.1159C88.0565 15.2365 87.7817 15.4174 87.5405 15.6587C87.2993 15.8999 87.105 16.1947 86.9576 16.5431C86.8236 16.8916 86.7566 17.2869 86.7566 17.7291C86.7566 18.1713 86.8236 18.5667 86.9576 18.9151C87.105 19.2635 87.2993 19.5583 87.5405 19.7996C87.7817 20.0408 88.0565 20.2284 88.3647 20.3624C88.6729 20.483 89.0012 20.5433 89.3497 20.5433Z" fill="#C6C2C2"/>
<path d="M74.8174 20.483L79.8428 15.0556H74.9782V12.8042H83.0791V14.9752L78.0537 20.4026H83.1595V22.654H74.8174V20.483Z" fill="#C6C2C2"/>
<path d="M70.453 21.6087H70.2922C69.984 21.9839 69.6088 22.3055 69.1665 22.5736C68.7377 22.8416 68.1816 22.9756 67.4981 22.9756C66.9889 22.9756 66.5064 22.8885 66.0508 22.7143C65.6086 22.5535 65.22 22.3256 64.8849 22.0308C64.5499 21.736 64.2886 21.3809 64.101 20.9654C63.9134 20.55 63.8195 20.0944 63.8195 19.5985C63.8195 19.0893 63.9201 18.6337 64.1211 18.2316C64.3221 17.8162 64.6035 17.4611 64.9653 17.1663C65.3272 16.8714 65.7493 16.6503 66.2317 16.5029C66.7276 16.3421 67.2636 16.2617 67.8398 16.2617C68.4831 16.2617 69.0124 16.3153 69.4279 16.4225C69.8433 16.5163 70.185 16.6168 70.453 16.724V16.4225C70.453 15.8999 70.2453 15.471 69.8299 15.136C69.4145 14.7876 68.8985 14.6134 68.2821 14.6134C67.3708 14.6134 66.6003 14.9953 65.9704 15.7592L64.0608 14.4526C65.106 13.1393 66.5332 12.4826 68.3424 12.4826C69.8701 12.4826 71.036 12.8445 71.84 13.5681C72.6441 14.2784 73.0461 15.337 73.0461 16.7441V22.654H70.453V21.6087ZM70.453 18.6538C70.1448 18.5064 69.8232 18.3925 69.4882 18.3121C69.1665 18.2182 68.8114 18.1713 68.4228 18.1713C67.7929 18.1713 67.3038 18.3121 66.9554 18.5935C66.6204 18.8615 66.4528 19.1965 66.4528 19.5985C66.4528 20.0006 66.6137 20.3222 66.9353 20.5634C67.2703 20.8046 67.6522 20.9252 68.0811 20.9252C68.4295 20.9252 68.7511 20.8649 69.0459 20.7443C69.3408 20.6103 69.5887 20.4428 69.7897 20.2418C70.0041 20.0274 70.1649 19.7862 70.2721 19.5181C70.3927 19.2367 70.453 18.9486 70.453 18.6538Z" fill="#C6C2C2"/>
<path d="M52.3638 12.8043H54.8362V13.9902H54.997C55.2383 13.5748 55.6135 13.2197 56.1227 12.9249C56.632 12.63 57.2618 12.4826 58.0123 12.4826C58.6421 12.4826 59.2385 12.6166 59.8013 12.8847C60.3775 13.1393 60.8801 13.5011 61.3089 13.9701C61.7511 14.4258 62.0996 14.9752 62.3542 15.6185C62.6088 16.2617 62.7361 16.9653 62.7361 17.7291C62.7361 18.493 62.6088 19.1965 62.3542 19.8398C62.0996 20.483 61.7511 21.0392 61.3089 21.5082C60.8801 21.9638 60.3775 22.3256 59.8013 22.5937C59.2385 22.8483 58.6421 22.9756 58.0123 22.9756C57.2618 22.9756 56.632 22.8282 56.1227 22.5334C55.6135 22.2385 55.2383 21.8834 54.997 21.468H54.8362L54.997 22.8751V26.9959H52.3638V12.8043ZM57.4695 20.5433C57.818 20.5433 58.1463 20.4763 58.4545 20.3423C58.7761 20.2083 59.0575 20.0207 59.2988 19.7795C59.54 19.5382 59.7343 19.2434 59.8817 18.895C60.0291 18.5466 60.1028 18.1579 60.1028 17.7291C60.1028 17.3003 60.0291 16.9117 59.8817 16.5632C59.7343 16.2148 59.54 15.92 59.2988 15.6788C59.0575 15.4375 58.7761 15.2499 58.4545 15.1159C58.1463 14.9819 57.818 14.9149 57.4695 14.9149C57.1211 14.9149 56.7861 14.9819 56.4645 15.1159C56.1562 15.2365 55.8815 15.4174 55.6403 15.6587C55.3991 15.8999 55.2048 16.1947 55.0574 16.5431C54.9099 16.8916 54.8362 17.2869 54.8362 17.7291C54.8362 18.1713 54.9099 18.5667 55.0574 18.9151C55.2048 19.2635 55.3991 19.5583 55.6403 19.7996C55.8815 20.0408 56.1562 20.2284 56.4645 20.3624C56.7861 20.483 57.1211 20.5433 57.4695 20.5433Z" fill="#C6C2C2"/>
<path d="M48.7458 11.377C48.518 11.377 48.2969 11.3368 48.0825 11.2564C47.8814 11.1626 47.7005 11.042 47.5397 10.8946C47.3923 10.7338 47.2717 10.5529 47.1779 10.3519C47.0975 10.1509 47.0573 9.92974 47.0573 9.68852C47.0573 9.44731 47.0975 9.22619 47.1779 9.02518C47.2717 8.82416 47.3923 8.64995 47.5397 8.50254C47.7005 8.34173 47.8814 8.22112 48.0825 8.14071C48.2969 8.0469 48.518 8 48.7458 8C49.2148 8 49.6169 8.16751 49.9519 8.50254C50.2869 8.82416 50.4544 9.21949 50.4544 9.68852C50.4544 10.1576 50.2869 10.5596 49.9519 10.8946C49.6169 11.2162 49.2148 11.377 48.7458 11.377ZM47.4392 22.654V12.8043H50.0725V22.654H47.4392Z" fill="#C6C2C2"/>
<path d="M39.1288 12.8042H41.6013V14.1711H41.7621C41.8827 13.9299 42.0435 13.7088 42.2446 13.5078C42.4456 13.3068 42.6667 13.1326 42.9079 12.9852C43.1625 12.8377 43.4305 12.7238 43.712 12.6434C44.0068 12.563 44.2949 12.5228 44.5763 12.5228C44.9248 12.5228 45.2196 12.5563 45.4608 12.6233C45.7154 12.6903 45.9298 12.7774 46.104 12.8847L45.4005 15.2767C45.2397 15.1963 45.0588 15.136 44.8577 15.0958C44.6701 15.0422 44.4356 15.0154 44.1542 15.0154C43.7924 15.0154 43.464 15.0891 43.1692 15.2365C42.8744 15.3705 42.6198 15.5648 42.4054 15.8195C42.2044 16.0741 42.0435 16.3756 41.9229 16.724C41.8157 17.0591 41.7621 17.4276 41.7621 17.8296V22.654H39.1288V12.8042Z" fill="#C6C2C2"/>
<path d="M32.0203 22.654V10.8343H28V8.26131H38.7543V10.8343H34.734V22.654H32.0203Z" fill="#C6C2C2"/>
</svg>
