<svg width="100" height="31" viewBox="0 0 100 31" fill="none" xmlns="http://www.w3.org/2000/svg">
<path d="M32.3662 23V9.23296H35.4717V23H32.3662ZM27.9947 11.7451V9.03516H39.8431V11.7451H27.9947Z" fill="#C6C2C2"/>
<path d="M39.2048 23V13.3868H42.2312V23H39.2048ZM42.2312 17.7187L40.9653 16.7297C41.2158 15.6088 41.6378 14.7385 42.2312 14.1187C42.8246 13.4989 43.6488 13.189 44.7037 13.189C45.1653 13.189 45.5675 13.2615 45.9103 13.4066C46.2664 13.5385 46.5763 13.7494 46.84 14.0396L45.04 16.3143C44.9081 16.1692 44.7433 16.0571 44.5455 15.978C44.3477 15.8989 44.1235 15.8593 43.873 15.8593C43.3719 15.8593 42.9697 16.0176 42.6664 16.3341C42.3763 16.6374 42.2312 17.0989 42.2312 17.7187Z" fill="#C6C2C2"/>
<path d="M47.4631 23V13.3868H50.4894V23H47.4631ZM48.9861 12.0615C48.5114 12.0615 48.1158 11.9033 47.7993 11.5868C47.496 11.2571 47.3444 10.8615 47.3444 10.4C47.3444 9.92527 47.496 9.52967 47.7993 9.21318C48.1158 8.8967 48.5114 8.73846 48.9861 8.73846C49.4609 8.73846 49.8499 8.8967 50.1532 9.21318C50.4565 9.52967 50.6081 9.92527 50.6081 10.4C50.6081 10.8615 50.4565 11.2571 50.1532 11.5868C49.8499 11.9033 49.4609 12.0615 48.9861 12.0615Z" fill="#C6C2C2"/>
<path d="M57.9759 23.1978C57.3298 23.1978 56.7363 23.0725 56.1957 22.822C55.655 22.5714 55.2133 22.2286 54.8704 21.7934C54.5276 21.3451 54.3298 20.8374 54.277 20.2703V16.2154C54.3298 15.6483 54.5276 15.1341 54.8704 14.6725C55.2133 14.211 55.655 13.8483 56.1957 13.5846C56.7363 13.3209 57.3298 13.189 57.9759 13.189C58.8858 13.189 59.6902 13.4066 60.3891 13.8418C61.1012 14.2769 61.655 14.8703 62.0506 15.622C62.4594 16.3736 62.6638 17.2308 62.6638 18.1934C62.6638 19.156 62.4594 20.0132 62.0506 20.7648C61.655 21.5165 61.1012 22.1099 60.3891 22.5451C59.6902 22.9802 58.8858 23.1978 57.9759 23.1978ZM57.4221 20.4681C57.8572 20.4681 58.233 20.3692 58.5495 20.1714C58.8792 19.9736 59.1363 19.7033 59.321 19.3604C59.5056 19.0176 59.5979 18.6286 59.5979 18.1934C59.5979 17.7451 59.5056 17.3494 59.321 17.0066C59.1363 16.6637 58.8792 16.4 58.5495 16.2154C58.233 16.0176 57.8638 15.9187 57.4418 15.9187C57.0199 15.9187 56.644 16.0176 56.3144 16.2154C55.9979 16.4 55.7473 16.6637 55.5627 17.0066C55.3781 17.3494 55.2858 17.7451 55.2858 18.1934C55.2858 18.6286 55.3715 19.0176 55.5429 19.3604C55.7276 19.7033 55.9847 19.9736 56.3144 20.1714C56.644 20.3692 57.0133 20.4681 57.4221 20.4681ZM52.4374 27.0549V13.3868H55.4638V15.8593L54.9693 18.1934L55.4243 20.5275V27.0549H52.4374Z" fill="#C6C2C2"/>
<path d="M64.0181 23V8.63956H67.0445V23H64.0181Z" fill="#C6C2C2"/>
<path d="M68.9925 23V13.3868H72.0189V23H68.9925ZM70.5156 12.0615C70.0409 12.0615 69.6453 11.9033 69.3288 11.5868C69.0255 11.2571 68.8738 10.8615 68.8738 10.4C68.8738 9.92527 69.0255 9.52967 69.3288 9.21318C69.6453 8.8967 70.0409 8.73846 70.5156 8.73846C70.9903 8.73846 71.3793 8.8967 71.6826 9.21318C71.9859 9.52967 72.1376 9.92527 72.1376 10.4C72.1376 10.8615 71.9859 11.2571 71.6826 11.5868C71.3793 11.9033 70.9903 12.0615 70.5156 12.0615Z" fill="#C6C2C2"/>
<path d="M80.3163 23V17.5209C80.3163 17.0198 80.1581 16.6176 79.8416 16.3143C79.5383 15.9978 79.1493 15.8396 78.6746 15.8396C78.3449 15.8396 78.0548 15.9121 77.8043 16.0571C77.5537 16.189 77.3559 16.3868 77.2108 16.6505C77.0658 16.9011 76.9933 17.1912 76.9933 17.5209L75.8262 16.9472C75.8262 16.1956 75.9911 15.5363 76.3207 14.9692C76.6504 14.4022 77.1054 13.967 77.6856 13.6637C78.279 13.3472 78.9449 13.189 79.6834 13.189C80.3955 13.189 81.0218 13.3604 81.5625 13.7033C82.1163 14.033 82.5515 14.4747 82.868 15.0286C83.1845 15.5824 83.3427 16.189 83.3427 16.8483V23H80.3163ZM73.9669 23V13.3868H76.9933V23H73.9669Z" fill="#C6C2C2"/>
<path d="M89.8505 23.2176C88.8088 23.2176 87.8791 23.0066 87.0615 22.5846C86.2571 22.1494 85.6242 21.5494 85.1626 20.7846C84.7011 20.0198 84.4703 19.156 84.4703 18.1934C84.4703 17.2308 84.6945 16.3736 85.1428 15.622C85.6044 14.8571 86.2242 14.2571 87.0022 13.822C87.7802 13.3868 88.6571 13.1692 89.6329 13.1692C90.5824 13.1692 91.4198 13.3736 92.145 13.7824C92.8703 14.1912 93.4373 14.7582 93.8461 15.4835C94.2681 16.2088 94.4791 17.0396 94.4791 17.9758C94.4791 18.1472 94.4659 18.3319 94.4395 18.5297C94.4264 18.7143 94.3934 18.9319 94.3406 19.1824L86.0527 19.2022V17.1253L93.0549 17.1055L91.7494 17.9758C91.7362 17.422 91.6505 16.967 91.4923 16.611C91.334 16.2418 91.0967 15.9648 90.7802 15.7802C90.4769 15.5824 90.1011 15.4835 89.6527 15.4835C89.178 15.4835 88.7626 15.5956 88.4066 15.8198C88.0637 16.0308 87.7934 16.3341 87.5956 16.7297C87.411 17.1253 87.3187 17.6066 87.3187 18.1736C87.3187 18.7407 87.4176 19.2286 87.6154 19.6374C87.8264 20.033 88.1165 20.3429 88.4857 20.567C88.8681 20.778 89.3165 20.8835 89.8308 20.8835C90.3055 20.8835 90.734 20.8044 91.1165 20.6461C91.4989 20.4747 91.8351 20.2242 92.1253 19.8945L93.7868 21.556C93.3121 22.1099 92.7384 22.5253 92.0659 22.8022C91.3934 23.0791 90.6549 23.2176 89.8505 23.2176Z" fill="#C6C2C2"/>
<path d="M13.1949 24.4286C17.8627 24.4286 21.6468 20.6445 21.6468 15.9767C21.6468 11.3088 17.8627 7.52473 13.1949 7.52473C8.52699 7.52473 4.74293 11.3088 4.74293 15.9767C4.74293 20.6445 8.52699 24.4286 13.1949 24.4286Z" stroke="#C6C2C2" stroke-width="1.19048" stroke-linecap="round" stroke-linejoin="round"/>
<path d="M9.94899 21.9993C10.0114 21.9993 10.0724 21.9809 10.1244 21.9465L10.655 21.5912C10.707 21.5567 10.768 21.5383 10.8304 21.5383H11.1087C11.1502 21.5383 11.1913 21.5302 11.2296 21.5143C11.2679 21.4984 11.3028 21.4751 11.3321 21.4458C11.3614 21.4164 11.3847 21.3816 11.4005 21.3432C11.4164 21.3049 11.4245 21.2638 11.4245 21.2223V21.1656C11.4245 21.0817 11.4578 21.0014 11.517 20.9421C11.5763 20.8828 11.6567 20.8495 11.7405 20.8495H13.3636C13.405 20.8495 13.4461 20.8576 13.4844 20.8735C13.5228 20.8893 13.5576 20.9126 13.5869 20.9419L14.1843 21.5396V21.7693H14.6277C14.6982 21.7693 14.7666 21.7928 14.8221 21.8362C14.8777 21.8796 14.9171 21.9403 14.9341 22.0086L15.0446 22.68C15.0616 22.7483 15.1011 22.809 15.1566 22.8524C15.2121 22.8958 15.2805 22.9193 15.351 22.9193H15.8291C15.8878 22.9193 15.9453 22.903 15.9952 22.8721C16.0451 22.8412 16.0855 22.7971 16.1117 22.7446L16.1669 22.6341C16.1931 22.5816 16.2334 22.5374 16.2833 22.5065C16.3332 22.4757 16.3907 22.4593 16.4494 22.4593H16.7609C16.8741 22.4593 16.9789 22.1686 17.0353 22.0702L17.8389 20.6639C17.8556 20.6344 17.8676 20.6024 17.8742 20.5691L18.071 19.5857C18.0859 19.5108 18.0733 19.4331 18.0354 19.3668L17.2343 17.9644C17.1956 17.897 17.1335 17.8462 17.0598 17.8216L16.6761 17.6936C16.6189 17.6745 16.5683 17.6395 16.5303 17.5926C16.4923 17.5457 16.4686 17.4889 16.4618 17.4289L16.3882 16.7648C16.3824 16.7124 16.3635 16.6622 16.3334 16.6189C16.3032 16.5756 16.2627 16.5406 16.2155 16.517L16.0839 16.4512C16.0315 16.4249 15.9874 16.3846 15.9566 16.3347C15.9257 16.2848 15.9094 16.2273 15.9094 16.1687V15.6748H15.6794L15.14 16.5737C15.0991 16.6421 15.0339 16.6926 14.9575 16.715C14.881 16.7373 14.7989 16.73 14.7276 16.6945L14.3144 16.488C14.2464 16.4539 14.1929 16.3965 14.1638 16.3262C14.1347 16.2559 14.1319 16.1775 14.1559 16.1053L14.1608 16.0914C14.1767 16.0438 14.1811 15.9932 14.1736 15.9436C14.1661 15.894 14.147 15.847 14.1177 15.8063C14.0884 15.7656 14.0498 15.7324 14.0052 15.7096C13.9606 15.6867 13.9112 15.6748 13.861 15.6748H13.1148C13.0561 15.6748 12.9986 15.6911 12.9487 15.722C12.8988 15.7529 12.8585 15.7971 12.8323 15.8496L12.573 16.3691C12.5407 16.4333 12.4876 16.4847 12.4222 16.5147C12.3569 16.5447 12.2833 16.5516 12.2135 16.5342L11.7483 16.418C11.6868 16.4025 11.622 16.406 11.5625 16.4279C11.5029 16.4498 11.4513 16.4892 11.4145 16.5408L10.4353 17.9116C10.4054 17.9536 10.3655 17.9876 10.3194 18.0106L8.83243 18.7537C8.75778 18.7912 8.70101 18.8567 8.67453 18.9359C8.64805 19.0151 8.65403 19.1015 8.69116 19.1763L9.65558 21.1052C9.68424 21.1627 9.69477 21.2275 9.68577 21.2911L9.63627 21.638C9.62972 21.6828 9.63291 21.7286 9.64563 21.7721C9.65835 21.8156 9.68029 21.8559 9.70996 21.8902C9.73963 21.9245 9.77634 21.9519 9.81758 21.9708C9.85883 21.9896 9.90365 21.9993 9.94899 21.9993Z" stroke="#C6C2C2" stroke-width="1.19048" stroke-linecap="round" stroke-linejoin="round"/>
<path d="M5.60229 12.4718L5.95033 13.8637L7.4596 14.1655L8.66702 15.373H10.4781V14.4674L8.96887 14.1655L7.4596 12.9581V11.147L9.27073 11.7507L10.1763 10.8451L9.2013 8.65157" stroke="#C6C2C2" stroke-width="1.19048" stroke-linecap="round" stroke-linejoin="round"/>
<path d="M12.602 14.5377L13.8441 14.4605L14.9951 14.0952" stroke="#C6C2C2" stroke-width="1.19048" stroke-linecap="round" stroke-linejoin="round"/>
<path d="M10.4782 11.7507L10.1763 12.0525" stroke="#C6C2C2" stroke-width="1.19048" stroke-linecap="round" stroke-linejoin="round"/>
<path d="M14.1004 23.2212L14.4023 23.5231" stroke="#C6C2C2" stroke-width="1.19048" stroke-linecap="round" stroke-linejoin="round"/>
<path d="M17.7227 16.2785L17.4208 15.373L16.2134 14.7693L15.9115 13.8637L18.0245 14.4674L18.3264 15.9767L17.7227 16.2785Z" stroke="#C6C2C2" stroke-width="1.19048" stroke-linecap="round" stroke-linejoin="round"/>
<path d="M10.1763 13.26L10.78 13.5618" stroke="#C6C2C2" stroke-width="1.19048" stroke-linecap="round" stroke-linejoin="round"/>
<path d="M11.9874 13.26L12.2893 12.9581" stroke="#C6C2C2" stroke-width="1.19048" stroke-linecap="round" stroke-linejoin="round"/>
</svg>
