<svg width="60" height="60" viewBox="0 0 60 60" fill="none" xmlns="http://www.w3.org/2000/svg">
<g clip-path="url(#clip0_608_502)">
<path d="M44.2504 20.0571L25.4074 1.72914C24.9286 1.26285 24.279 1.00058 23.6015 1H8.37037C5.88519 1 3.5018 1.96025 1.74452 3.66951C-0.0127679 5.37877 -1 7.69703 -1 10.1143V49.8857C-1 52.303 -0.0127679 54.6212 1.74452 56.3305C3.5018 58.0397 5.88519 59 8.37037 59H35.6296C38.1148 59 40.4982 58.0397 42.2555 56.3305C44.0128 54.6212 45 52.303 45 49.8857V21.7143C44.9732 21.0899 44.7055 20.4982 44.2504 20.0571ZM26.2593 9.48457L36.277 19.2286H26.2593V9.48457ZM35.6296 54.0286H8.37037C7.24074 54.0286 6.15739 53.5921 5.35862 52.8152C4.55985 52.0382 4.11111 50.9845 4.11111 49.8857V10.1143C4.11111 9.01553 4.55985 7.96178 5.35862 7.18484C6.15739 6.40791 7.24074 5.97143 8.37037 5.97143H21.1481V21.7143C21.157 22.3709 21.4291 22.9981 21.9064 23.4625C22.3838 23.9268 23.0287 24.1914 23.7037 24.2H39.8889V49.8857C39.8889 50.9845 39.4402 52.0382 38.6414 52.8152C37.8426 53.5921 36.7593 54.0286 35.6296 54.0286Z" fill="#CF3E3E"/>
<path d="M27.2222 39.6208C25.0729 38.3166 23.4553 36.3346 22.6432 34.0101C23.3958 31.8355 23.623 29.523 23.3073 27.2502C23.2065 26.6776 22.9178 26.1517 22.4837 25.7501C22.0497 25.3486 21.4935 25.0929 20.8975 25.0209C20.3015 24.9488 19.6973 25.0643 19.1745 25.3501C18.6516 25.636 18.2378 26.0771 17.9943 26.608C17.5964 29.3404 17.8964 32.1255 18.8682 34.7199C17.5406 37.7188 16.0591 40.6517 14.429 43.5077C11.9473 44.8597 8.55678 46.8877 8.03247 49.2198C7.61302 51.1126 11.2832 55.9797 17.5399 45.4343C20.322 44.4356 23.1716 43.6225 26.0687 43.0007C28.2102 44.1847 30.5991 44.8893 33.0595 45.0625C33.6244 45.0767 34.181 44.929 34.6595 44.6382C35.1379 44.3473 35.5167 43.9261 35.7483 43.4277C35.9799 42.9292 36.0539 42.3757 35.9611 41.8367C35.8683 41.2976 35.6127 40.7972 35.2266 40.3982C33.7585 38.9448 29.3893 39.3504 27.2222 39.6208ZM10.5142 49.7606C11.4937 48.1397 12.7874 46.7167 14.3242 45.5695C11.9473 49.2198 10.5142 49.862 10.5142 49.7944V49.7606ZM20.7207 26.7432C21.6295 26.7432 21.5596 30.6301 20.9305 31.6779C20.4565 30.084 20.3846 28.4034 20.7207 26.777V26.7432ZM17.6798 43.2373C18.864 41.148 19.892 38.9793 20.7557 36.7478C21.6817 38.4141 22.9695 39.8669 24.5307 41.0066C22.1855 41.5746 19.8938 42.3321 17.6798 43.2711V43.2373ZM34.1081 42.6289C34.1081 42.6289 33.4789 43.3725 29.4592 41.6826C33.8285 41.4122 34.5625 42.3923 34.1081 42.6627V42.6289Z" fill="#CF3E3E"/>
</g>
<defs>
<clipPath id="clip0_608_502">
<rect width="60" height="60" fill="white"/>
</clipPath>
</defs>
</svg>
