<svg width="60" height="60" viewBox="0 0 60 60" fill="none" xmlns="http://www.w3.org/2000/svg">
<path d="M54.4615 23.6923V48.6538C54.4615 49.2557 54.2225 49.8329 53.7969 50.2584C53.3713 50.684 52.7941 50.9231 52.1923 50.9231C51.5905 50.9231 51.0133 50.684 50.5877 50.2584C50.1622 49.8329 49.9231 49.2557 49.9231 48.6538V39.5769C49.9231 37.7714 49.2058 36.0398 47.9291 34.7632C46.6525 33.4865 44.9209 32.7692 43.1154 32.7692H36.3077V5.53846C36.3077 4.33479 35.8295 3.18041 34.9784 2.32928C34.1273 1.47816 32.9729 1 31.7692 1H4.53846C3.33479 1 2.18041 1.47816 1.32928 2.32928C0.478158 3.18041 0 4.33479 0 5.53846V55.4615C0 56.6652 0.478158 57.8196 1.32928 58.6707C2.18041 59.5218 3.33479 60 4.53846 60H31.7692C32.9729 60 34.1273 59.5218 34.9784 58.6707C35.8295 57.8196 36.3077 56.6652 36.3077 55.4615V37.3077H43.1154C43.7172 37.3077 44.2944 37.5468 44.72 37.9723C45.1455 38.3979 45.3846 38.9751 45.3846 39.5769V48.6538C45.3846 50.4594 46.1018 52.1909 47.3785 53.4676C48.6552 54.7443 50.3868 55.4615 52.1923 55.4615C53.9978 55.4615 55.7294 54.7443 57.0061 53.4676C58.2828 52.1909 59 50.4594 59 48.6538V19.1538C59 17.9502 58.5218 16.7958 57.6707 15.9447C56.8196 15.0935 55.6652 14.6154 54.4615 14.6154V7.76231C54.4497 7.16837 54.2053 6.60278 53.7811 6.18698C53.3568 5.77118 52.7864 5.53834 52.1923 5.53846C51.8763 5.54368 51.5647 5.61357 51.2767 5.74382C50.9887 5.87407 50.7305 6.06191 50.5179 6.29578C50.3052 6.52965 50.1428 6.80459 50.0405 7.10364C49.9382 7.40269 49.8982 7.71953 49.9231 8.03462V19.1538C49.9231 20.0515 50.1892 20.9289 50.6879 21.6753C51.1866 22.4216 51.8954 23.0033 52.7247 23.3468C53.554 23.6903 54.4666 23.7802 55.3469 23.6051C56.2273 23.43 57.036 22.9977 57.6707 22.363C58.3054 21.7283 58.7377 20.9196 58.9128 20.0393C59.0879 19.1589 58.998 18.2463 58.6545 17.4171C58.311 16.5878 57.7293 15.8789 56.983 15.3803C56.2366 14.8816 55.3592 14.6154 54.4615 14.6154V23.6923ZM31.7692 25.9615C31.7692 26.5634 31.5302 27.1406 31.1046 27.5661C30.679 27.9917 30.1018 28.2308 29.5 28.2308H6.80769C6.20585 28.2308 5.62867 27.9917 5.2031 27.5661C4.77754 27.1406 4.53846 26.5634 4.53846 25.9615V12.3462C4.53846 11.7443 4.77754 11.1671 5.2031 10.7416C5.62867 10.316 6.20585 10.0769 6.80769 10.0769H29.5C30.1018 10.0769 30.679 10.316 31.1046 10.7416C31.5302 11.1671 31.7692 11.7443 31.7692 12.3462V25.9615Z" fill="#38A922"/>
</svg>
