<svg width="60" height="60" viewBox="0 0 60 60" fill="none" xmlns="http://www.w3.org/2000/svg">
<g clip-path="url(#clip0_608_504)">
<path d="M29.9004 58C45.4194 58 58 45.4194 58 29.9004C58 14.3814 45.4194 1.80075 29.9004 1.80075C14.3814 1.80075 1.80075 14.3814 1.80075 29.9004C1.80075 45.4194 14.3814 58 29.9004 58Z" stroke="#FF974C" stroke-width="3" stroke-linecap="round" stroke-linejoin="round"/>
<path d="M19.1092 49.9234C19.3166 49.9234 19.5193 49.8623 19.6922 49.7478L21.4565 48.5666C21.6294 48.452 21.8322 48.391 22.0396 48.391H22.9648C23.1028 48.391 23.2394 48.3638 23.3668 48.311C23.4942 48.2581 23.61 48.1807 23.7075 48.0832C23.8049 47.9856 23.8822 47.8697 23.9349 47.7423C23.9876 47.6148 24.0147 47.4782 24.0146 47.3402V47.1516C24.0146 46.8729 24.1253 46.6056 24.3223 46.4086C24.5194 46.2115 24.7866 46.1008 25.0653 46.1008H30.4614C30.5993 46.1008 30.7359 46.1278 30.8633 46.1805C30.9907 46.2332 31.1065 46.3105 31.204 46.4079L33.1901 48.395V49.1587H34.6643C34.8986 49.1587 35.1261 49.237 35.3106 49.3812C35.4952 49.5254 35.6263 49.7272 35.6829 49.9545L36.0502 52.1864C36.1069 52.4137 36.2379 52.6155 36.4225 52.7597C36.6071 52.9039 36.8346 52.9823 37.0688 52.9822H38.6585C38.8536 52.9823 39.0448 52.9279 39.2107 52.8252C39.3767 52.7226 39.5107 52.5758 39.5978 52.4012L39.7815 52.0339C39.8686 51.8593 40.0026 51.7125 40.1685 51.6098C40.3344 51.5072 40.5257 51.4528 40.7208 51.4528H41.7565C42.1328 51.4528 42.481 50.4864 42.6687 50.1592L45.3402 45.4837C45.3959 45.3856 45.4355 45.2792 45.4576 45.1685L46.1119 41.8989C46.1615 41.6501 46.1194 41.3917 45.9935 41.1714L43.33 36.5088C43.2015 36.2847 42.9951 36.1158 42.75 36.0342L41.4745 35.6086C41.2841 35.5452 41.1159 35.4286 40.9896 35.2727C40.8634 35.1167 40.7844 34.9279 40.7619 34.7285L40.5171 32.5207C40.4978 32.3463 40.4352 32.1796 40.335 32.0356C40.2347 31.8917 40.0999 31.7752 39.943 31.6968L39.5055 31.478C39.3312 31.3907 39.1846 31.2565 39.0821 31.0907C38.9797 30.9248 38.9254 30.7336 38.9254 30.5387V28.8969H38.1607L36.3674 31.8854C36.2315 32.1128 36.0148 32.2805 35.7606 32.3549C35.5064 32.4294 35.2335 32.4051 34.9965 32.2869L33.6226 31.6004C33.3965 31.4871 33.2187 31.2961 33.1219 31.0624C33.0252 30.8287 33.0159 30.5679 33.0958 30.3279L33.1118 30.2818C33.1648 30.1237 33.1795 29.9553 33.1546 29.7905C33.1297 29.6257 33.0659 29.4692 32.9685 29.3339C32.8712 29.1986 32.743 29.0884 32.5946 29.0124C32.4463 28.9364 32.282 28.8968 32.1153 28.8969H29.6345C29.4394 28.8967 29.2481 28.951 29.0821 29.0537C28.9162 29.1563 28.7822 29.3033 28.6952 29.4779L27.8331 31.205C27.7258 31.4186 27.549 31.5894 27.3318 31.6891C27.1145 31.7889 26.8698 31.8118 26.6379 31.754L25.0914 31.3676C24.8868 31.3163 24.6714 31.3278 24.4734 31.4006C24.2754 31.4735 24.104 31.6043 23.9814 31.7761L20.7259 36.3332C20.6264 36.4729 20.4941 36.586 20.3405 36.6624L15.397 39.1331C15.1488 39.2576 14.9601 39.4753 14.8721 39.7387C14.784 40.002 14.8039 40.2894 14.9273 40.5381L18.1337 46.9509C18.229 47.142 18.264 47.3576 18.2341 47.5691L18.0695 48.7221C18.0477 48.8713 18.0583 49.0234 18.1006 49.1681C18.1429 49.3128 18.2158 49.4467 18.3145 49.5606C18.4131 49.6746 18.5352 49.766 18.6723 49.8286C18.8094 49.8912 18.9584 49.9235 19.1092 49.9234Z" stroke="#FF974C" stroke-width="3" stroke-linecap="round" stroke-linejoin="round"/>
<path d="M4.65764 18.248L5.81474 22.8755L10.8325 23.879L14.8468 27.8932H20.8681V24.8826L15.8503 23.879L10.8325 19.8648V13.8434L16.8539 15.8505L19.8646 12.8399L16.6231 5.54701" stroke="#FF974C" stroke-width="3" stroke-linecap="round" stroke-linejoin="round"/>
<path d="M27.9292 25.1164L32.0589 24.8595L35.8854 23.6452" stroke="#FF974C" stroke-width="3" stroke-linecap="round" stroke-linejoin="round"/>
<path d="M20.8683 15.8506L19.8648 16.8541" stroke="#FF974C" stroke-width="3" stroke-linecap="round" stroke-linejoin="round"/>
<path d="M32.9111 53.9858L33.9147 54.9893" stroke="#FF974C" stroke-width="3" stroke-linecap="round" stroke-linejoin="round"/>
<path d="M44.9536 30.904L43.95 27.8933L39.9358 25.8862L38.9322 22.8755L45.9571 24.8826L46.9607 29.9004L44.9536 30.904Z" stroke="#FF974C" stroke-width="3" stroke-linecap="round" stroke-linejoin="round"/>
<path d="M19.8648 20.8683L21.8719 21.8719" stroke="#FF974C" stroke-width="3" stroke-linecap="round" stroke-linejoin="round"/>
<path d="M25.8862 20.8684L26.8898 19.8649" stroke="#FF974C" stroke-width="3" stroke-linecap="round" stroke-linejoin="round"/>
</g>
<defs>
<clipPath id="clip0_608_504">
<rect width="60" height="60" fill="white"/>
</clipPath>
</defs>
</svg>
